PathFileType	4	(X/Y/Z)	C:/Users/beibeiliu/ov580/test_trc/User2\sequence.8_training_dense_left.trc
DataRate	CameraRate	NumFrames	NumMarkers	Units	OrigDataRate	OrigDataStartFrame	OrigNumFrames
120	120	8	19	mm	120	129	343
Frame#	Time	ThumbCMC			ThumbMCP			ThumbIP			ThumbTip			IndexMCP			IndexPIP			IndexTip			MiddleMCP			MiddlePIP			MiddleTip			RingMCP			RingPIP			RingTip			PinkyMCP			PinkyPIP			PinkyTip			BackHand1			BackHand2			BackHand3	
		X0	Y0	Z0	X1	Y1	Z1	X2	Y2	Z2	X3	Y3	Z3	X4	Y4	Z4	X5	Y5	Z5	X6	Y6	Z6	X7	Y7	Z7	X8	Y8	Z8	X9	Y9	Z9	X10	Y10	Z10	X11	Y11	Z11	X12	Y12	Z12	X13	Y13	Z13	X14	Y14	Z14	X15	Y15	Z15	X16	Y16	Z16	X17	Y17	Z17	X18	Y18	Z18	
128	1.06667	-95.8008	69.8764	97.8834	-69.2511	55.9119	80.8766	-52.9137	39.8484	53.1405	-45.1252	24.4145	33.9183	-110.148	74.6554	15.386	-99.7235	68.0234	-14.1127	-88.9002	54.8259	-35.0636	-134.069	66.0648	3.79452	-126.328	55.7693	-27.0501	-119	30.3571	-49.9533	-154.974	51.753	8.50758	-151.156	42.4276	-14.7844	-136.026	21.9618	-40.4982	-169.027	35.233	31.4466	-169.675	24.0833	1.34338	-156.835	11.6421	-23.0353	-162.303	64.0261	67.4894	-168.37	72.6372	100.288	-134.064	86.037	84.7406	
129	1.075	-97.5903	67.7629	91.5842	-74.9616	52.9152	71.8408	-59.6242	37.9176	41.0649	-56.169	23.8249	24.9823	-115.782	75.8895	12.6068	-109.761	68.6135	-21.0374	-103.562	55.7359	-42.1875	-146.175	66.2251	4.18706	-139.332	56.0938	-30.5281	-134.101	33.5223	-55.469	-164.879	52.1911	8.50164	-164.06	43.1168	-18.263	-152.659	24.227	-42.7344	-179.651	35.586	29.7238	-178.051	27.6163	0.456317	-171.223	15.7973	-25.4408	-166.971	64.7369	67.3864	-168.271	72.8982	98.9889	-135.159	84.2408	79.5662	
130	1.08333	-102.036	63.9554	83.8161	-79.7345	50.412	60.8759	-67.4687	33.7863	33.0209	-62.7584	20.2199	12.6638	-125.506	72.44	8.68472	-125.558	65.6945	-23.7345	-122.016	49.5408	-49.922	-153.585	64.9505	1.77231	-154.464	54.3937	-30.7424	-150.008	32.3318	-56.5396	-175.872	49.9904	13.356	-173.092	41.2425	-20.5998	-166.937	21.4454	-45.7181	-185.644	33.4554	28.4547	-187.806	25.1756	2.47244	-185.832	12.091	-22.8457	-174.345	61.6139	63.9985	-171.597	66.9379	98.4196	-140.467	81.0075	79.7788	
131	1.09167	-108.076	60.0544	82.235	-87.2407	47.3414	57.7331	-73.8705	32.793	30.2224	-72.5578	16.7435	8.06763	-138.242	65.768	3.73783	-138.595	60.6115	-23.0617	-140.077	43.2093	-48.7312	-166.342	58.7658	0.611847	-168.397	47.1041	-31.1531	-167.778	22.7488	-58.0919	-185.181	42.5549	13.0805	-190.16	32.9054	-16.5197	-185.918	14.4284	-40.237	-191.684	27.6344	32.4791	-199.938	16.1179	6.33411	-201.316	3.41205	-20.6376	-180.369	54.6002	68.864	-174.538	65.4427	98.8736	-147.147	75.6939	78.5391	
132	1.1	-112.807	58.9334	78.1633	-89.595	47.5718	53.4619	-80.0265	33.2323	24.3894	-77.2245	17.5538	6.1146	-150.291	56.807	4.92771	-153.882	49.6134	-24.4406	-152.319	34.8365	-48.9521	-176.509	49.0401	1.80909	-182.423	35.7616	-28.6226	-181.467	12.3924	-56.7147	-191.127	35.2065	14.3336	-199.81	21.5069	-12.6251	-194.807	5.69274	-37.1699	-198.198	18.3852	37.1611	-207.233	5.91284	10.0582	-209.387	-8.43212	-13.3605	-182.586	47.1548	68.1824	-177.288	59.7168	103.913	-152.343	71.7557	72.0899	
133	1.10833	-114.999	57.9417	75.681	-94.6648	48.3169	54.8887	-85.9773	31.6254	25.2146	-82.9585	15.0263	0.746189	-156.86	48.9346	6.71157	-162.646	38.2498	-21.8177	-162.634	21.7605	-48.4787	-184.561	38.1472	7.02132	-188.306	26.3048	-25.118	-193.002	2.01519	-49.303	-201.02	22.2491	24.7237	-205.023	11.4207	-4.72157	-202.43	-9.35025	-32.1528	-205.739	6.07342	45.2798	-215.368	-6.30684	20.9123	-214.951	-18.2064	-2.51899	-187.504	42.2061	75.5434	-182.216	53.5314	104.94	-159.446	65.2847	76.3189	
134	1.11667	-121.402	54.5079	78.3053	-104.096	44.0668	50.6482	-93.4092	28.979	22.7923	-89.5535	12.1037	3.21052	-166.412	39.5288	8.56213	-168.627	29.5032	-24.1806	-173.694	10.6096	-42.8991	-190.473	29.4056	9.64583	-199.517	14.9693	-17.8441	-198.399	-9.85543	-46.7576	-206.81	11.9412	28.6376	-212.635	-1.16003	0.282149	-212.415	-24.9164	-24.1928	-212.118	-2.86615	49.0843	-218.544	-15.7635	24.2568	-220.909	-29.8013	2.95358	-192.334	31.2234	74.7299	-186.483	48.8355	102.145	-164.702	60.7167	73.6435	
135	1.125	-127.222	52.7986	78.8132	-107.943	43.1937	52.2953	-99.0502	24.7158	21.2825	-93.6161	8.12901	1.17467	-176.289	28.7167	7.12723	-183.152	15.7067	-18.9658	-186.137	-3.30745	-40.4501	-198.916	18.1847	14.4543	-206.773	3.29894	-13.4684	-212.078	-27.4112	-39.061	-210.426	2.67237	29.5826	-222.348	-15.88	6.8318	-219.277	-35.7859	-16.7011	-211.473	-11.0433	58.5496	-225.631	-28.1754	33.8392	-230.283	-42.8492	14.4255	-195.954	26.7132	79.3186	-193.288	38.9352	106.788	-170.422	53.9018	75.5031	
